<svg height="512pt" viewBox="0 0 512 512" width="512pt" xmlns="http://www.w3.org/2000/svg"><path d="m256 512c68.378906 0 132.667969-26.628906 181.019531-74.980469 48.351563-48.351562 74.980469-112.640625 74.980469-181.019531s-26.628906-132.667969-74.980469-181.019531c-48.351562-48.351563-112.640625-74.980469-181.019531-74.980469-58.050781 0-115.054688 20.027344-160.292969 56.402344-3.226562 2.597656-3.738281 7.320312-1.144531 10.546875 2.59375 3.226562 7.316406 3.742187 10.542969 1.144531 43.203125-34.734375 95.378906-53.09375 150.894531-53.09375 64.371094 0 124.894531 25.066406 170.414062 70.585938 45.519532 45.519531 70.585938 106.039062 70.585938 170.414062 0 64.371094-25.066406 124.894531-70.585938 170.414062-45.519531 45.519532-106.042968 70.585938-170.414062 70.585938-64.375 0-124.894531-25.066406-170.414062-70.585938-45.519532-45.519531-70.585938-106.039062-70.585938-170.414062 0-63.261719 24.34375-123.039062 68.542969-168.316406 2.894531-2.964844 2.835937-7.714844-.128907-10.605469-2.964843-2.894531-7.714843-2.835937-10.605468.125-46.953125 48.097656-72.808594 111.597656-72.808594 178.796875 0 68.378906 26.628906 132.667969 74.980469 181.019531 48.351562 48.351563 112.640625 74.980469 181.019531 74.980469zm0 0"/><path d="m392.757812 395.199219c3.011719 2.84375 7.757813 2.703125 10.601563-.3125 35.5625-37.714844 55.144531-87.039063 55.144531-138.886719 0-111.660156-90.84375-202.503906-202.503906-202.503906s-202.507812 90.84375-202.507812 202.503906 90.847656 202.503906 202.507812 202.503906c45.492188 0 88.472656-14.742187 124.292969-42.632812 3.269531-2.542969 3.855469-7.257813 1.3125-10.523438-2.546875-3.269531-7.257813-3.855468-10.527344-1.3125-33.164063 25.820313-72.957031 39.46875-115.078125 39.46875-103.390625 0-187.503906-84.113281-187.503906-187.503906s84.113281-187.503906 187.503906-187.503906 187.503906 84.113281 187.503906 187.503906c0 48.003906-18.132812 93.675781-51.058594 128.597656-2.84375 3.011719-2.703124 7.761719.3125 10.601563zm0 0"/><path d="m258.96875 401.40625h18.058594c3.296875 0 5.972656-2.671875 5.972656-5.96875v-19.828125c28.789062-4.882813 49.316406-24.503906 49.316406-67.726563v-6.835937c0-32.542969-13.667968-45.234375-33.519531-53.046875 17.25-7.484375 27.664063-25.058594 27.664063-51.746094 0-35.917968-19.074219-50.597656-43.460938-55.359375v-24.332031c0-3.296875-2.675781-5.96875-5.972656-5.96875h-18.058594c-3.296875 0-5.96875 2.671875-5.96875 5.96875v22.414062h-14.765625v-22.414062c0-3.296875-2.671875-5.96875-5.972656-5.96875h-18.058594c-3.296875 0-5.96875 2.671875-5.96875 5.96875v22.414062h-10c-9.4375 0-18.550781 4.554688-18.550781 13.34375v211.539063c0 6.835937 7.160156 13.019531 18.550781 13.019531h10v18.558594c0 3.296875 2.671875 5.96875 5.96875 5.96875h18.058594c3.300781 0 5.972656-2.671875 5.972656-5.96875v-18.558594h14.765625v18.558594c0 3.296875 2.671875 5.96875 5.96875 5.96875zm-37.304688-225.332031h36.125c16.597657 0 26.363282 10.414062 26.363282 27.339843 0 16.597657-8.464844 27.988282-26.039063 27.988282h-36.449219zm0 163.703125v-75.179688h36.777344c19.847656 0 31.566406 9.113282 31.566406 34.496094v5.207031c0 24.734375-11.71875 35.476563-31.566406 35.476563zm0 0"/></svg>