<?xml version="1.0" encoding="iso-8859-1"?>
<!-- Generator: Adobe Illustrator 19.0.0, SVG Export Plug-In . SVG Version: 6.00 Build 0)  -->
<svg version="1.1" id="Capa_1" xmlns="http://www.w3.org/2000/svg" xmlns:xlink="http://www.w3.org/1999/xlink" x="0px" y="0px"
	 viewBox="0 0 496 496" style="enable-background:new 0 0 496 496;" xml:space="preserve">
<g>
	<g>
		<g>
			<rect x="136" y="416" width="240" height="16"/>
			<path d="M352.968,330.344c4.536-4.528,7.032-10.56,7.032-16.968V248h-16v65.376c0,2.104-0.848,4.168-2.344,5.656L328,332.688V400
				h16v-60.688L352.968,330.344z"/>
			<path d="M168,339.312V400h16v-67.312l-37.256-37.256C134.656,283.344,128,267.272,128,250.176V136.808
				c18.232,3.72,32,19.872,32,39.192v19.312l2.344,2.344C176.312,211.624,184,230.184,184,249.936V280h16v-30.064
				c0-2.872-0.136-5.728-0.4-8.552C213.792,250.8,230.48,256,248,256c48.52,0,88-39.48,88-88s-39.48-88-88-88
				c-39.312,0-72.68,25.92-83.928,61.568c-3.608-4.608-7.88-8.664-12.728-11.952C166.904,90.576,205.4,64,248,64
				c57.344,0,104,46.656,104,104s-46.656,104-104,104c-10.136,0-20.128-1.448-29.712-4.304l-4.576,15.328
				C224.784,286.328,236.32,288,248,288c66.168,0,120-53.832,120-120c0-15.064-2.912-29.432-8-42.728V32c0-17.648-14.352-32-32-32
				c-9.608,0-18.128,4.336-24,11.056C298.128,4.336,289.608,0,280,0c-9.608,0-18.128,4.336-24,11.056C250.128,4.336,241.608,0,232,0
				c-9.608,0-18.128,4.336-24,11.056C202.128,4.336,193.608,0,184,0c-17.648,0-32,14.352-32,32v64h0.208
				c-6.144,8.112-11.312,17.032-15.256,26.64C131.6,120.936,125.912,120,120,120h-8v130.176c0,21.368,8.32,41.456,23.432,56.56
				L168,339.312z M248,96c39.704,0,72,32.296,72,72s-32.296,72-72,72c-21.816,0-42.112-9.768-55.888-26.768
				c-2.88-6.432-6.448-12.56-10.824-18.2C177.808,186.44,176,177.368,176,168C176,128.296,208.296,96,248,96z M312,64V32
				c0-8.824,7.176-16,16-16c8.824,0,16,7.176,16,16v64.304c-8.776-11.72-19.6-21.776-32-29.632V64z M264,32c0-8.824,7.176-16,16-16
				c8.824,0,16,7.176,16,16v26.088c-10.024-4.392-20.776-7.384-32-8.896V32z M216,32c0-8.824,7.176-16,16-16c8.824,0,16,7.176,16,16
				v16c-10.992,0-21.72,1.616-32,4.496V32z M168,32c0-8.824,7.176-16,16-16c8.824,0,16,7.176,16,16v26.184
				c-11.704,5.152-22.504,12.136-32,20.624V32z"/>
			<path d="M224,224h16v-16h16v16h16v-17.472c9.288-3.312,16-12.112,16-22.528c0-6.144-2.32-11.752-6.128-16
				c3.808-4.248,6.128-9.856,6.128-16c0-10.416-6.712-19.216-16-22.528V112h-16v16h-16v-16h-16v16h-16v80h16V224z M224,144h40
				c4.416,0,8,3.584,8,8s-3.584,8-8,8h-40V144z M224,176h40c4.416,0,8,3.584,8,8s-3.584,8-8,8h-40V176z"/>
			<path d="M456,192h-40v304h40c22.056,0,40-17.944,40-40V232C496,209.944,478.056,192,456,192z M480,456c0,13.232-10.768,24-24,24
				h-24V208h24c13.232,0,24,10.768,24,24V456z"/>
			<rect x="448" y="304" width="16" height="80"/>
			<path d="M80,208h16v-16H40c-22.056,0-40,17.944-40,40v224c0,22.056,17.944,40,40,40h360v-16H80V208z M64,480H40
				c-13.232,0-24-10.768-24-24V232c0-13.232,10.768-24,24-24h24V480z"/>
			<rect x="384" y="192" width="16" height="16"/>
			<rect x="136" y="448" width="16" height="16"/>
			<rect x="168" y="448" width="16" height="16"/>
			<rect x="200" y="448" width="16" height="16"/>
			<rect x="232" y="448" width="16" height="16"/>
			<rect x="264" y="448" width="16" height="16"/>
			<rect x="296" y="448" width="16" height="16"/>
			<rect x="328" y="448" width="16" height="16"/>
			<rect x="360" y="448" width="16" height="16"/>
		</g>
	</g>
</g>
<g>
</g>
<g>
</g>
<g>
</g>
<g>
</g>
<g>
</g>
<g>
</g>
<g>
</g>
<g>
</g>
<g>
</g>
<g>
</g>
<g>
</g>
<g>
</g>
<g>
</g>
<g>
</g>
<g>
</g>
</svg>
